<?xml version="1.0" encoding="utf-8" ?>
<svg baseProfile="full" height="256" version="1.1" width="256" xmlns="http://www.w3.org/2000/svg" xmlns:ev="http://www.w3.org/2001/xml-events" xmlns:xlink="http://www.w3.org/1999/xlink"><defs /><polyline fill="none" points="197.31225296442688,193.26482213438734 43.5098814229249,35.415019762845844" stroke="black" stroke-linecap="round" stroke-width="4" /><polyline fill="none" points="138.62450592885375,126.48221343873517 50.59288537549407,49.58102766798419" stroke="black" stroke-linecap="round" stroke-width="4" /><polyline fill="none" points="186.18181818181816,171.00395256916994 42.498023715415016,41.48616600790513" stroke="black" stroke-linecap="round" stroke-width="4" /><polyline fill="none" points="197.31225296442688,187.19367588932806 101.18577075098814,98.15019762845849" stroke="black" stroke-linecap="round" stroke-width="4" /><polyline fill="none" points="145.7075098814229,131.54150197628456 104.22134387351778,109.28063241106719" stroke="black" stroke-linecap="round" stroke-width="4" /><polyline fill="none" points="91.06719367588933,89.04347826086956 79.93675889328063,84.99604743083003" stroke="black" stroke-linecap="round" stroke-width="4" /><polyline fill="none" points="182.13438735177866,175.05138339920947 74.87747035573122,78.92490118577075" stroke="black" stroke-linecap="round" stroke-width="4" /><polyline fill="none" points="149.75494071146244,135.5889328063241 33.391304347826086,31.36758893280632" stroke="black" stroke-linecap="round" stroke-width="4" /><polyline fill="none" points="101.18577075098814,104.22134387351778 1.0118577075098814,6.071146245059288" stroke="black" stroke-linecap="round" stroke-width="4" /><polyline fill="none" points="175.05138339920947,167.9683794466403 0.0,0.0" stroke="black" stroke-linecap="round" stroke-width="4" /><polyline fill="none" points="217.5494071146245,250.94071146245057 28.33201581027668,27.320158102766797" stroke="black" stroke-linecap="round" stroke-width="4" /><polyline fill="none" points="247.90513833992094,255.99999999999997 82.97233201581027,87.0197628458498" stroke="black" stroke-linecap="round" stroke-width="4" /><polyline fill="none" points="241.83399209486166,246.89328063241106 134.57707509881422,141.66007905138338" stroke="black" stroke-linecap="round" stroke-width="4" /><polyline fill="none" points="200.3478260869565,194.27667984189722 168.9802371541502,167.9683794466403" stroke="black" stroke-linecap="round" stroke-width="4" /><polyline fill="none" points="0.0,7.08300395256917 67.79446640316205,67.79446640316205" stroke="black" stroke-linecap="round" stroke-width="4" /><polyline fill="none" points="3.035573122529644,9.106719367588932 70.83003952569169,76.90118577075098" stroke="black" stroke-linecap="round" stroke-width="4" /></svg>