<?xml version="1.0" encoding="utf-8" ?>
<svg baseProfile="full" height="256" version="1.1" width="256" xmlns="http://www.w3.org/2000/svg" xmlns:ev="http://www.w3.org/2001/xml-events" xmlns:xlink="http://www.w3.org/1999/xlink"><defs /><polyline fill="none" points="6.023529411764706,18.070588235294117 19.07450980392157,250.98039215686273" stroke="black" stroke-linecap="round" stroke-width="4" /><polyline fill="none" points="21.08235294117647,126.49411764705883 253.9921568627451,252.98823529411766" stroke="black" stroke-linecap="round" stroke-width="4" /><polyline fill="none" points="129.50588235294117,110.43137254901961 256.0,131.51372549019607" stroke="black" stroke-linecap="round" stroke-width="4" /><polyline fill="none" points="112.43921568627451,74.29019607843136 1.003921568627451,3.011764705882353" stroke="black" stroke-linecap="round" stroke-width="4" /><polyline fill="none" points="0.0,0.0 9.035294117647059,24.094117647058823" stroke="black" stroke-linecap="round" stroke-width="4" /><polyline fill="none" points="96.37647058823529,90.35294117647058 12.047058823529412,14.054901960784314" stroke="black" stroke-linecap="round" stroke-width="4" /><polyline fill="none" points="22.08627450980392,57.2235294117647 31.12156862745098,27.105882352941176" stroke="black" stroke-linecap="round" stroke-width="4" /><polyline fill="none" points="53.2078431372549,51.2 28.109803921568627,37.14509803921568" stroke="black" stroke-linecap="round" stroke-width="4" /><polyline fill="none" points="54.21176470588235,19.07450980392157 40.15686274509804,40.15686274509804" stroke="black" stroke-linecap="round" stroke-width="4" /><polyline fill="none" points="22.08627450980392,20.07843137254902 43.168627450980395,28.109803921568627" stroke="black" stroke-linecap="round" stroke-width="4" /><polyline fill="none" points="83.32549019607843,103.40392156862745 32.12549019607843,26.101960784313725" stroke="black" stroke-linecap="round" stroke-width="4" /><polyline fill="none" points="106.4156862745098,101.39607843137254 29.113725490196078,38.14901960784314" stroke="black" stroke-linecap="round" stroke-width="4" /><polyline fill="none" points="103.40392156862745,69.27058823529411 42.16470588235294,40.15686274509804" stroke="black" stroke-linecap="round" stroke-width="4" /><polyline fill="none" points="76.29803921568627,73.28627450980392 34.13333333333333,30.11764705882353" stroke="black" stroke-linecap="round" stroke-width="4" /><polyline fill="none" points="70.27450980392157,69.27058823529411 59.23137254901961,66.25882352941176" stroke="black" stroke-linecap="round" stroke-width="4" /><polyline fill="none" points="102.4,89.34901960784313 65.25490196078431,50.19607843137255" stroke="black" stroke-linecap="round" stroke-width="4" /></svg>