<?xml version="1.0" encoding="utf-8" ?>
<svg baseProfile="full" height="256" version="1.1" width="256" xmlns="http://www.w3.org/2000/svg" xmlns:ev="http://www.w3.org/2001/xml-events" xmlns:xlink="http://www.w3.org/1999/xlink"><defs /><polyline fill="none" points="126.4578313253012,117.20481927710843 6.16867469879518,0.0" stroke="black" stroke-linecap="round" stroke-width="4" /><polyline fill="none" points="69.91164658634537,61.6867469879518 27.75903614457831,46.26506024096385" stroke="black" stroke-linecap="round" stroke-width="4" /><polyline fill="none" points="138.79518072289156,139.82329317269074 33.92771084337349,49.34939759036144" stroke="black" stroke-linecap="round" stroke-width="4" /><polyline fill="none" points="93.5582329317269,90.4738955823293 75.05220883534136,111.03614457831324" stroke="black" stroke-linecap="round" stroke-width="4" /><polyline fill="none" points="101.78313253012047,98.69879518072288 74.02409638554217,104.86746987951807" stroke="black" stroke-linecap="round" stroke-width="4" /><polyline fill="none" points="72.99598393574297,69.91164658634537 48.321285140562246,59.63052208835341" stroke="black" stroke-linecap="round" stroke-width="4" /><polyline fill="none" points="5.140562248995984,47.29317269076305 163.46987951807228,179.91967871485943" stroke="black" stroke-linecap="round" stroke-width="4" /><polyline fill="none" points="0.0,58.602409638554214 177.86345381526104,213.84738955823292" stroke="black" stroke-linecap="round" stroke-width="4" /><polyline fill="none" points="4.112449799196787,13.365461847389557 173.75100401606423,161.41365461847388" stroke="black" stroke-linecap="round" stroke-width="4" /><polyline fill="none" points="60.658634538152604,74.02409638554217 209.73493975903614,224.12851405622487" stroke="black" stroke-linecap="round" stroke-width="4" /><polyline fill="none" points="92.5301204819277,114.12048192771083 206.65060240963854,191.2289156626506" stroke="black" stroke-linecap="round" stroke-width="4" /><polyline fill="none" points="93.5582329317269,105.89558232931726 205.62248995983933,203.56626506024094" stroke="black" stroke-linecap="round" stroke-width="4" /><polyline fill="none" points="105.89558232931726,112.06425702811244 215.9036144578313,223.1004016064257" stroke="black" stroke-linecap="round" stroke-width="4" /><polyline fill="none" points="88.41767068273091,132.6265060240964 236.46586345381525,239.55020080321282" stroke="black" stroke-linecap="round" stroke-width="4" /><polyline fill="none" points="68.88353413654617,112.06425702811244 243.66265060240963,247.7751004016064" stroke="black" stroke-linecap="round" stroke-width="4" /><polyline fill="none" points="74.02409638554217,114.12048192771083 255.99999999999997,252.9156626506024" stroke="black" stroke-linecap="round" stroke-width="4" /><polyline fill="none" points="89.44578313253011,132.6265060240964 255.99999999999997,255.99999999999997" stroke="black" stroke-linecap="round" stroke-width="4" /><polyline fill="none" points="113.09236947791163,152.1606425702811 232.35341365461846,229.26907630522086" stroke="black" stroke-linecap="round" stroke-width="4" /></svg>