<?xml version="1.0" encoding="utf-8" ?>
<svg baseProfile="full" height="256" version="1.1" width="256" xmlns="http://www.w3.org/2000/svg" xmlns:ev="http://www.w3.org/2001/xml-events" xmlns:xlink="http://www.w3.org/1999/xlink"><defs /><polyline fill="none" points="73.87064676616916,89.15422885572139 0.0,38.208955223880594" stroke="black" stroke-linecap="round" stroke-width="4" /><polyline fill="none" points="149.01492537313433,166.84577114427861 17.83084577114428,56.039800995024876" stroke="black" stroke-linecap="round" stroke-width="4" /><polyline fill="none" points="226.70646766169153,234.34825870646765 49.67164179104478,82.78606965174129" stroke="black" stroke-linecap="round" stroke-width="4" /><polyline fill="none" points="73.87064676616916,92.97512437810946 61.134328358208954,92.97512437810946" stroke="black" stroke-linecap="round" stroke-width="4" /><polyline fill="none" points="175.76119402985074,185.9502487562189 92.97512437810946,124.81592039800995" stroke="black" stroke-linecap="round" stroke-width="4" /><polyline fill="none" points="113.35323383084577,122.26865671641791 80.23880597014926,108.2587064676617" stroke="black" stroke-linecap="round" stroke-width="4" /><polyline fill="none" points="92.97512437810946,104.43781094527363 115.90049751243781,160.47761194029852" stroke="black" stroke-linecap="round" stroke-width="4" /><polyline fill="none" points="171.94029850746267,175.76119402985074 128.63681592039802,168.11940298507463" stroke="black" stroke-linecap="round" stroke-width="4" /><polyline fill="none" points="238.16915422885572,256.0 109.53233830845771,140.09950248756218" stroke="black" stroke-linecap="round" stroke-width="4" /><polyline fill="none" points="62.407960199004975,80.23880597014926 70.04975124378109,99.34328358208955" stroke="black" stroke-linecap="round" stroke-width="4" /><polyline fill="none" points="86.60696517412936,75.14427860696517 151.56218905472636,165.57213930348257" stroke="black" stroke-linecap="round" stroke-width="4" /><polyline fill="none" points="166.84577114427861,231.80099502487562 34.38805970149254,0.0" stroke="black" stroke-linecap="round" stroke-width="4" /><polyline fill="none" points="49.67164179104478,45.850746268656714 43.30348258706468,58.58706467661691" stroke="black" stroke-linecap="round" stroke-width="4" /><polyline fill="none" points="174.48756218905473,193.59203980099502 132.45771144278606,168.11940298507463" stroke="black" stroke-linecap="round" stroke-width="4" /><polyline fill="none" points="100.61691542288557,99.34328358208955 203.78109452736317,229.2537313432836" stroke="black" stroke-linecap="round" stroke-width="4" /></svg>