<?xml version="1.0" encoding="utf-8" ?>
<svg baseProfile="full" height="256" version="1.1" width="256" xmlns="http://www.w3.org/2000/svg" xmlns:ev="http://www.w3.org/2001/xml-events" xmlns:xlink="http://www.w3.org/1999/xlink"><defs /><polyline fill="none" points="42.666666666666664,5.079365079365079 65.01587301587301,105.65079365079364" stroke="black" stroke-linecap="round" stroke-width="4" /><polyline fill="none" points="10.158730158730158,22.349206349206348 110.73015873015872,113.77777777777777" stroke="black" stroke-linecap="round" stroke-width="4" /><polyline fill="none" points="1.0158730158730158,0.0 100.57142857142857,90.4126984126984" stroke="black" stroke-linecap="round" stroke-width="4" /><polyline fill="none" points="36.57142857142857,56.888888888888886 67.04761904761904,53.841269841269835" stroke="black" stroke-linecap="round" stroke-width="4" /><polyline fill="none" points="55.87301587301587,72.12698412698413 54.857142857142854,53.841269841269835" stroke="black" stroke-linecap="round" stroke-width="4" /><polyline fill="none" points="22.349206349206348,24.38095238095238 55.87301587301587,47.74603174603175" stroke="black" stroke-linecap="round" stroke-width="4" /><polyline fill="none" points="27.428571428571427,27.428571428571427 73.14285714285714,69.07936507936508" stroke="black" stroke-linecap="round" stroke-width="4" /><polyline fill="none" points="47.74603174603175,68.06349206349206 33.52380952380952,17.26984126984127" stroke="black" stroke-linecap="round" stroke-width="4" /><polyline fill="none" points="84.31746031746032,81.26984126984127 0.0,37.58730158730158" stroke="black" stroke-linecap="round" stroke-width="4" /><polyline fill="none" points="107.68253968253967,107.68253968253967 67.04761904761904,66.03174603174602" stroke="black" stroke-linecap="round" stroke-width="4" /><polyline fill="none" points="93.46031746031746,170.66666666666666 59.93650793650794,75.17460317460316" stroke="black" stroke-linecap="round" stroke-width="4" /><polyline fill="none" points="80.25396825396825,99.55555555555554 108.6984126984127,110.73015873015872" stroke="black" stroke-linecap="round" stroke-width="4" /><polyline fill="none" points="217.3968253968254,256.0 77.2063492063492,35.55555555555556" stroke="black" stroke-linecap="round" stroke-width="4" /><polyline fill="none" points="237.7142857142857,243.8095238095238 85.33333333333333,105.65079365079364" stroke="black" stroke-linecap="round" stroke-width="4" /><polyline fill="none" points="245.84126984126982,237.7142857142857 100.57142857142857,138.15873015873015" stroke="black" stroke-linecap="round" stroke-width="4" /><polyline fill="none" points="216.38095238095238,204.19047619047618 134.09523809523807,159.4920634920635" stroke="black" stroke-linecap="round" stroke-width="4" /></svg>