<?xml version="1.0" encoding="utf-8" ?>
<svg baseProfile="full" height="256" version="1.1" width="256" xmlns="http://www.w3.org/2000/svg" xmlns:ev="http://www.w3.org/2001/xml-events" xmlns:xlink="http://www.w3.org/1999/xlink"><defs /><polyline fill="none" points="60.366812227074234,62.60262008733624 26.829694323144103,46.95196506550218" stroke="black" stroke-linecap="round" stroke-width="4" /><polyline fill="none" points="124.08733624454148,129.6768558951965 169.92139737991266,175.51091703056767" stroke="black" stroke-linecap="round" stroke-width="4" /><polyline fill="none" points="150.91703056768557,156.5065502183406 112.90829694323143,125.20524017467248" stroke="black" stroke-linecap="round" stroke-width="4" /><polyline fill="none" points="119.61572052401746,128.5589519650655 89.43231441048034,99.49344978165938" stroke="black" stroke-linecap="round" stroke-width="4" /><polyline fill="none" points="107.31877729257641,117.37991266375545 71.54585152838428,79.37117903930131" stroke="black" stroke-linecap="round" stroke-width="4" /><polyline fill="none" points="88.31441048034934,98.37554585152839 136.38427947598254,145.32751091703057" stroke="black" stroke-linecap="round" stroke-width="4" /><polyline fill="none" points="146.44541484716157,157.6244541484716 22.358078602620086,33.53711790393013" stroke="black" stroke-linecap="round" stroke-width="4" /><polyline fill="none" points="86.07860262008734,93.90393013100436 15.65065502183406,24.593886462882097" stroke="black" stroke-linecap="round" stroke-width="4" /><polyline fill="none" points="130.7947598253275,140.85589519650654 77.1353711790393,87.19650655021833" stroke="black" stroke-linecap="round" stroke-width="4" /><polyline fill="none" points="76.01746724890829,82.72489082969432 125.20524017467248,136.38427947598254" stroke="black" stroke-linecap="round" stroke-width="4" /><polyline fill="none" points="107.31877729257641,121.85152838427948 110.67248908296942,119.61572052401746" stroke="black" stroke-linecap="round" stroke-width="4" /><polyline fill="none" points="140.85589519650654,152.03493449781658 165.44978165938863,174.39301310043666" stroke="black" stroke-linecap="round" stroke-width="4" /><polyline fill="none" points="112.90829694323143,127.4410480349345 78.2532751091703,86.07860262008734" stroke="black" stroke-linecap="round" stroke-width="4" /><polyline fill="none" points="172.15720524017468,183.33624454148472 48.069868995633186,60.366812227074234" stroke="black" stroke-linecap="round" stroke-width="4" /><polyline fill="none" points="165.44978165938863,175.51091703056767 23.47598253275109,33.53711790393013" stroke="black" stroke-linecap="round" stroke-width="4" /><polyline fill="none" points="107.31877729257641,112.90829694323143 58.13100436681222,84.96069868995633" stroke="black" stroke-linecap="round" stroke-width="4" /></svg>