<?xml version="1.0" encoding="utf-8" ?>
<svg baseProfile="full" height="256" version="1.1" width="256" xmlns="http://www.w3.org/2000/svg" xmlns:ev="http://www.w3.org/2001/xml-events" xmlns:xlink="http://www.w3.org/1999/xlink"><defs /><polyline fill="none" points="93.62962962962962,92.44444444444444 37.925925925925924,35.55555555555556" stroke="black" stroke-linecap="round" stroke-width="4" /><polyline fill="none" points="101.92592592592592,84.14814814814814 9.481481481481481,0.0" stroke="black" stroke-linecap="round" stroke-width="4" /><polyline fill="none" points="87.7037037037037,86.51851851851852 30.814814814814813,36.74074074074074" stroke="black" stroke-linecap="round" stroke-width="4" /><polyline fill="none" points="82.96296296296296,78.22222222222221 40.29629629629629,42.666666666666664" stroke="black" stroke-linecap="round" stroke-width="4" /><polyline fill="none" points="114.96296296296296,232.29629629629628 18.962962962962962,21.333333333333332" stroke="black" stroke-linecap="round" stroke-width="4" /><polyline fill="none" points="82.96296296296296,129.1851851851852 47.407407407407405,46.22222222222222" stroke="black" stroke-linecap="round" stroke-width="4" /><polyline fill="none" points="232.29629629629628,228.74074074074073 20.148148148148145,39.11111111111111" stroke="black" stroke-linecap="round" stroke-width="4" /><polyline fill="none" points="233.48148148148147,256.0 40.29629629629629,49.77777777777777" stroke="black" stroke-linecap="round" stroke-width="4" /><polyline fill="none" points="235.85185185185185,234.66666666666666 27.25925925925926,26.074074074074073" stroke="black" stroke-linecap="round" stroke-width="4" /><polyline fill="none" points="60.44444444444444,59.25925925925925 61.629629629629626,60.44444444444444" stroke="black" stroke-linecap="round" stroke-width="4" /><polyline fill="none" points="33.18518518518518,11.851851851851851 60.44444444444444,66.37037037037037" stroke="black" stroke-linecap="round" stroke-width="4" /><polyline fill="none" points="106.66666666666666,106.66666666666666 37.925925925925924,30.814814814814813" stroke="black" stroke-linecap="round" stroke-width="4" /><polyline fill="none" points="122.07407407407406,125.62962962962962 28.444444444444443,18.962962962962962" stroke="black" stroke-linecap="round" stroke-width="4" /><polyline fill="none" points="125.62962962962962,112.59259259259258 21.333333333333332,22.51851851851852" stroke="black" stroke-linecap="round" stroke-width="4" /><polyline fill="none" points="145.77777777777777,155.25925925925924 26.074074074074073,21.333333333333332" stroke="black" stroke-linecap="round" stroke-width="4" /><polyline fill="none" points="144.59259259259258,151.7037037037037 40.29629629629629,35.55555555555556" stroke="black" stroke-linecap="round" stroke-width="4" /><polyline fill="none" points="182.5185185185185,174.2222222222222 30.814814814814813,35.55555555555556" stroke="black" stroke-linecap="round" stroke-width="4" /><polyline fill="none" points="173.03703703703704,184.88888888888889 18.962962962962962,14.222222222222221" stroke="black" stroke-linecap="round" stroke-width="4" /><polyline fill="none" points="199.1111111111111,196.74074074074073 20.148148148148145,23.703703703703702" stroke="black" stroke-linecap="round" stroke-width="4" /><polyline fill="none" points="196.74074074074073,206.2222222222222 36.74074074074074,35.55555555555556" stroke="black" stroke-linecap="round" stroke-width="4" /><polyline fill="none" points="82.96296296296296,99.55555555555554 2.3703703703703702,7.111111111111111" stroke="black" stroke-linecap="round" stroke-width="4" /><polyline fill="none" points="85.33333333333333,80.59259259259258 0.0,3.5555555555555554" stroke="black" stroke-linecap="round" stroke-width="4" /></svg>