<?xml version="1.0" encoding="utf-8" ?>
<svg baseProfile="full" height="256" version="1.1" width="256" xmlns="http://www.w3.org/2000/svg" xmlns:ev="http://www.w3.org/2001/xml-events" xmlns:xlink="http://www.w3.org/1999/xlink"><defs /><polyline fill="none" points="147.02008032128512,157.3012048192771 8.224899598393574,26.730923694779115" stroke="black" stroke-linecap="round" stroke-width="4" /><polyline fill="none" points="129.5421686746988,143.93574297188755 16.449799196787147,32.899598393574294" stroke="black" stroke-linecap="round" stroke-width="4" /><polyline fill="none" points="106.92369477911646,88.41767068273091 77.10843373493975,101.78313253012047" stroke="black" stroke-linecap="round" stroke-width="4" /><polyline fill="none" points="173.75100401606423,241.60642570281124 10.281124497991968,0.0" stroke="black" stroke-linecap="round" stroke-width="4" /><polyline fill="none" points="188.144578313253,229.26907630522086 40.09638554216867,67.85542168674698" stroke="black" stroke-linecap="round" stroke-width="4" /><polyline fill="none" points="175.80722891566265,255.99999999999997 78.13654618473895,136.73895582329317" stroke="black" stroke-linecap="round" stroke-width="4" /><polyline fill="none" points="78.13654618473895,74.02409638554217 27.75903614457831,45.23694779116465" stroke="black" stroke-linecap="round" stroke-width="4" /><polyline fill="none" points="64.7710843373494,66.82730923694778 25.702811244979916,45.23694779116465" stroke="black" stroke-linecap="round" stroke-width="4" /><polyline fill="none" points="49.34939759036144,66.82730923694778 28.787148594377506,25.702811244979916" stroke="black" stroke-linecap="round" stroke-width="4" /><polyline fill="none" points="50.37751004016064,58.602409638554214 5.140562248995984,15.42168674698795" stroke="black" stroke-linecap="round" stroke-width="4" /><polyline fill="none" points="54.489959839357425,55.51807228915662 25.702811244979916,45.23694779116465" stroke="black" stroke-linecap="round" stroke-width="4" /><polyline fill="none" points="30.8433734939759,46.26506024096385 26.730923694779115,24.67469879518072" stroke="black" stroke-linecap="round" stroke-width="4" /><polyline fill="none" points="30.8433734939759,30.8433734939759 5.140562248995984,18.50602409638554" stroke="black" stroke-linecap="round" stroke-width="4" /><polyline fill="none" points="35.98393574297189,29.815261044176705 26.730923694779115,45.23694779116465" stroke="black" stroke-linecap="round" stroke-width="4" /><polyline fill="none" points="16.449799196787147,17.477911646586342 24.67469879518072,47.29317269076305" stroke="black" stroke-linecap="round" stroke-width="4" /><polyline fill="none" points="0.0,15.42168674698795 31.8714859437751,32.899598393574294" stroke="black" stroke-linecap="round" stroke-width="4" /></svg>